<?xml version="1.0" encoding="UTF-8"?>
<!-- Generator: Adobe Illustrator 19.2.1, SVG Export Plug-In . SVG Version: 6.00 Build 0)  -->
<svg version="1.1" id="Capa_1" xmlns="http://www.w3.org/2000/svg" xmlns:xlink="http://www.w3.org/1999/xlink" x="0px" y="0px" viewBox="0 0 200 200" style="enable-background:new 0 0 200 200;" xml:space="preserve">
<style type="text/css">
	.st0{fill:#FFFFFF;}
</style>
<title>Ticket</title>
<g>
	<path class="st0" d="M66,102.3c-0.8-0.8-2.2-0.8-3.1,0l-0.4,0.4c-0.8,0.8-0.8,2.2,0,3.1l11.1,11.1c0.8,0.8,2.2,0.8,3.1,0l0.4-0.4   c0.8-0.8,0.8-2.2,0-3.1L66,102.3z"/>
	<path class="st0" d="M86.4,122.7c-0.8-0.8-2.2-0.8-3,0l-0.4,0.4c-0.8,0.8-0.8,2.2,0,3l11.1,11.1c0.8,0.8,2.2,0.8,3.1,0l0.4-0.4   c0.8-0.9,0.8-2.2,0-3L86.4,122.7z"/>
	<path class="st0" d="M45.7,81.9c-0.8-0.8-2.2-0.8-3.1,0l-0.4,0.4c-0.8,0.8-0.8,2.2,0,3.1l11.2,11c0.8,0.8,2.2,0.8,3,0l0.4-0.4   c0.8-0.8,0.8-2.2,0-3L45.7,81.9z"/>
	<path class="st0" d="M106.8,143c-0.8-0.8-2.2-0.8-3.1,0l-0.4,0.4c-0.8,0.8-0.8,2.2,0,3.1l11.1,11.1c0,0,0,0,0,0   c0.8,0.8,2.2,0.8,3,0l0.4-0.4v0c0,0,0,0,0,0c0.8-0.8,0.8-2.2,0-3L106.8,143z"/>
	<path class="st0" d="M185.2,96.4c-9.4-9.4-9.4-24.6-0.1-33.9c0,0,0,0,0.1-0.1c1.3-1.3,1.8-3,1-3.7L141.5,14c-0.7-0.7-2.6-0.5-4,0.7   c-9.4,9.4-24.6,9.4-33.9,0.1c0,0,0,0-0.1-0.1c-1.3-1.4-3.5-1.4-4.9,0c0,0,0,0,0,0L15,98.3c-1.4,1.4-1.4,3.5,0,4.9l-0.1,0.1   c9.4,9.4,9.4,24.6,0.1,33.9c0,0,0,0-0.1,0.1c-0.8,0.7-1.3,1.8-1.5,2.8c0,0.3,0.1,0.7,0.3,0.9l45,45c0.7,0.7,2.4,0.2,3.8-1.1   c9.4-9.4,24.6-9.4,33.9-0.1c0,0,0,0,0.1,0.1l0.1-0.1c1.4,1.4,3.5,1.4,4.9,0l83.6-83.6C186.5,99.9,186.5,97.7,185.2,96.4L185.2,96.4   z M56.8,96l-0.4,0.4c-0.8,0.8-2.2,0.8-3,0l-11.2-11c-0.8-0.8-0.8-2.2,0-3.1l0.4-0.4c0.8-0.8,2.2-0.8,3.1,0L56.8,93   C57.6,93.8,57.6,95.2,56.8,96z M77.2,116.5l-0.4,0.4c-0.8,0.8-2.2,0.8-3.1,0l-11.1-11.1c-0.8-0.8-0.8-2.2,0-3.1l0.4-0.4   c0.8-0.8,2.2-0.8,3.1,0l11.1,11.1C78,114.2,78,115.6,77.2,116.5z M97.5,136.8l-0.4,0.4c-0.8,0.8-2.2,0.8-3.1,0L83,126.1   c-0.8-0.8-0.8-2.2,0-3l0.4-0.4c0.8-0.8,2.2-0.8,3,0l11.1,11.1C98.3,134.7,98.3,136,97.5,136.8z M117.9,157.2   C117.9,157.2,117.9,157.2,117.9,157.2L117.9,157.2l-0.4,0.4c-0.8,0.8-2.2,0.9-3,0c0,0,0,0,0,0l-11.1-11.1c-0.8-0.8-0.8-2.2,0-3.1   l0.4-0.4c0.8-0.8,2.2-0.8,3.1,0l11.1,11.1C118.8,155,118.8,156.3,117.9,157.2z"/>
</g>
</svg>